<?xml version="1.0" encoding="UTF-8"?>
<svg id="_图层_2" data-name="图层 2" xmlns="http://www.w3.org/2000/svg" viewBox="0 0 1770 630.89">
  <path d="m868.95,463.8c-76.11-.03-137.88-61.8-137.83-137.86.04-76.13,61.78-137.86,137.85-137.83,76.12.03,137.87,61.79,137.83,137.85-.03,76.12-61.78,137.87-137.85,137.84Zm-131.7-137.93c-.11,72.66,58.78,131.66,131.55,131.79,72.72.13,131.68-58.71,131.86-131.57.18-72.62-58.75-131.7-131.51-131.84-72.77-.14-131.79,58.76-131.9,131.62Z"/>
  <path d="m921.06,273.82v-38.24h38.23v38.24h-38.23Zm5.72-32.37v26.66h26.66v-26.66h-26.66Z"/>
  <path d="m816.84,235.6v38.24h-38.23v-38.24h38.23Zm-5.7,5.87h-26.66v26.66h26.66v-26.66Z"/>
  <path d="m778.6,378.06h38.23v31.5h-5.62v-25.78h-26.77v25.78h-5.84v-31.5Z"/>
  <path d="m806.31,388.6v17.17h-17.19v-17.17h17.19Z"/>
  <path d="m932.83,334.2h3.7v71.05h-3.7v-71.05Z"/>
  <path d="m911.07,235.58h3.52v49.28h-3.52v-49.28Z"/>
  <path d="m984.52,328.59h-3.52v-49.14h3.52v49.14Z"/>
  <path d="m790.52,295.86h3.52v43.76h-3.52v-43.76Z"/>
  <path d="m783.15,372.46h-3.53v-38.23h3.53v38.23Z"/>
  <path d="m914.58,405.27h-3.53v-38.23h3.53v38.23Z"/>
  <path d="m881.59,295.77h-3.53v-32.7h3.53v32.7Z"/>
  <path d="m832.36,383.34h-3.52v-32.73h3.52v32.73Z"/>
  <path d="m823.33,306.91h3.52v32.73h-3.52v-32.73Z"/>
  <path d="m843.42,416.33h-3.69v-27.35h3.69v27.35Z"/>
  <path d="m756.92,350.61v27.35h-3.54v-27.35h3.54Z"/>
  <path d="m828.86,388.95h3.52v27.35h-3.52v-27.35Z"/>
  <path d="m753.39,279.45h3.52v27.38h-3.52v-27.38Z"/>
  <path d="m905.54,317.79h3.52v27.18h-3.52v-27.18Z"/>
  <path d="m773.3,290.25h-3.52v-27.21h3.52v27.21Z"/>
  <path d="m941.86,388.87h-3.52v-27.18h3.52v27.18Z"/>
  <path d="m970.13,301.38h3.53v21.82h-3.53v-21.82Z"/>
  <path d="m867.2,301.38h3.52v21.82h-3.52v-21.82Z"/>
  <path d="m925.46,317.71h-3.53v-21.82h3.53v21.82Z"/>
  <path d="m919.93,334.12h-3.52v-21.85h3.52v21.85Z"/>
  <path d="m764.26,328.67h3.52v21.82h-3.52v-21.82Z"/>
  <path d="m848.77,356.05h-3.52v-21.82h3.52v21.82Z"/>
  <path d="m828.83,295.75v-21.82h3.52v21.82h-3.52Z"/>
  <path d="m941.86,356.05h-3.52v-21.82h3.52v21.82Z"/>
  <path d="m978.99,361.58h-3.52v-21.82h3.52v21.82Z"/>
  <path d="m826.84,377.99h-3.52v-21.85h3.52v21.85Z"/>
  <path d="m834.39,378.07h3.52v21.82h-3.52v-21.82Z"/>
  <path d="m872.73,394.47h3.52v21.82h-3.52v-21.82Z"/>
  <path d="m796.04,306.91h3.53v21.65h-3.53v-21.65Z"/>
  <path d="m964.61,268.57h3.52v21.68h-3.52v-21.68Z"/>
  <path d="m870.71,383.34h-3.52v-21.65h3.52v21.65Z"/>
  <path d="m894.49,295.85h3.69v16.3h-3.69v-16.3Z"/>
  <path d="m801.4,295.86h3.7v16.3h-3.7v-16.3Z"/>
  <path d="m938.36,290.33h3.52v16.47h-3.52v-16.47Z"/>
  <path d="m788.5,345h-3.52v-16.3h3.52v16.3Z"/>
  <path d="m970.09,350.49v-16.27h3.55v16.27h-3.55Z"/>
  <path d="m887.11,301.3h-3.52v-16.3h3.52v16.3Z"/>
  <path d="m916.4,301.28v-16.3h3.52v16.3h-3.52Z"/>
  <path d="m870.71,437.05h-3.52v-16.3h3.52v16.3Z"/>
  <path d="m930.99,301.3h-3.53v-16.3h3.53v16.3Z"/>
  <path d="m806.93,420.72h3.52v16.3h-3.52v-16.3Z"/>
  <path d="m876.23,312.18h-3.52v-16.3h3.52v16.3Z"/>
  <path d="m954.77,295.85h3.52v16.3h-3.52v-16.3Z"/>
  <path d="m767.8,301.39v16.3h-3.54v-16.3h3.54Z"/>
  <path d="m958.27,405.28h-3.52v-16.3h3.52v16.3Z"/>
  <path d="m870.73,268.59v16.3h-3.52v-16.3h3.52Z"/>
  <path d="m856.32,301.38h3.52v16.3h-3.52v-16.3Z"/>
  <path d="m773.33,388.97v16.29h-3.55v-16.29h3.55Z"/>
  <path d="m943.88,306.91h3.52v16.3h-3.52v-16.3Z"/>
  <path d="m837.89,220.3h-3.52v-16.3h3.52v16.3Z"/>
  <path d="m975.49,317.79h3.52v16.33h-3.52v-16.33Z"/>
  <path d="m949.41,378.07h3.52v16.3h-3.52v-16.3Z"/>
  <path d="m900.02,263.04h3.52v16.3h-3.52v-16.3Z"/>
  <path d="m845.24,220.27v-16.29h3.55v16.29h-3.55Z"/>
  <path d="m854.3,231.18h-3.53v-16.3h3.53v16.3Z"/>
  <path d="m859.85,263.06v16.29h-3.52v-16.29h3.52Z"/>
  <path d="m925.45,345h-3.52v-16.3h3.52v16.3Z"/>
  <path d="m747.86,334.2h3.52v16.33h-3.52v-16.33Z"/>
  <path d="m899.99,225.81v-16.3h3.52v16.3h-3.52Z"/>
  <path d="m806.92,334.2h3.52v16.3h-3.52v-16.3Z"/>
  <path d="m876.23,350.53h-3.52v-16.33h3.52v16.33Z"/>
  <path d="m859.83,225.83h-3.52v-16.3h3.52v16.3Z"/>
  <path d="m973.64,290.25h-3.52v-16.33h3.52v16.33Z"/>
  <path d="m839.74,328.67h3.69v10.94h-3.69v-10.94Z"/>
  <path d="m936.51,290.25h-3.7v-10.77h3.7v10.77Z"/>
  <path d="m898.17,257.43h-3.69v-10.77h3.69v10.77Z"/>
  <path d="m898.17,214.77h-3.7v-10.77h3.7v10.77Z"/>
  <path d="m805.08,431.53h-3.7v-10.77h3.7v10.77Z"/>
  <path d="m805.07,231.19h-3.68v-10.8h3.68v10.8Z"/>
  <path d="m932.78,328.58v-10.76h3.72v10.76h-3.72Z"/>
  <path d="m843.43,214.77h-3.69v-10.78h3.69v10.78Z"/>
  <path d="m949.39,339.64v-10.95h3.54v10.95h-3.54Z"/>
  <path d="m867.2,345.08h3.52v10.94h-3.52v-10.94Z"/>
  <path d="m954.74,339.62v-10.93h3.55v10.93h-3.55Z"/>
  <path d="m903.51,361.59h-3.51v-10.97h3.51v10.97Z"/>
  <path d="m758.91,345.08h3.52v10.94h-3.52v-10.94Z"/>
  <path d="m832.38,339.65h-3.52v-10.96h3.52v10.96Z"/>
  <path d="m911.04,361.55v-10.94h3.52v10.94h-3.52Z"/>
  <path d="m990.05,339.64h-3.52v-10.94h3.52v10.94Z"/>
  <path d="m968.11,394.39h-3.52v-10.94h3.52v10.94Z"/>
  <path d="m881.59,361.58h-3.52v-10.94h3.52v10.94Z"/>
  <path d="m767.77,399.92h-3.52v-10.94h3.52v10.94Z"/>
  <path d="m861.67,257.51h3.52v10.94h-3.52v-10.94Z"/>
  <path d="m916.42,388.95h3.52v10.94h-3.52v-10.94Z"/>
  <path d="m927.48,388.95h3.52v10.94h-3.52v-10.94Z"/>
  <path d="m865.18,209.42h-3.52v-10.94h3.52v10.94Z"/>
  <path d="m881.61,388.96v10.95h-3.52v-10.95h3.52Z"/>
  <path d="m854.29,361.6h-3.49v-10.97h3.49v10.97Z"/>
  <path d="m859.82,246.56h-3.51v-10.97h3.51v10.97Z"/>
  <path d="m872.72,273.93h3.53v10.94h-3.53v-10.94Z"/>
  <path d="m859.82,399.92h-3.52v-10.94h3.52v10.94Z"/>
  <path d="m867.17,399.89v-10.93h3.55v10.93h-3.55Z"/>
  <path d="m899.99,246.53v-10.94h3.52v10.94h-3.52Z"/>
  <path d="m947.39,345h-3.52v-10.77h3.52v10.77Z"/>
  <path d="m947.39,366.93h-3.52v-10.77h3.52v10.77Z"/>
  <path d="m828.86,246.63h3.52v10.77h-3.52v-10.77Z"/>
  <path d="m881.59,442.41h-3.52v-10.77h3.52v10.77Z"/>
  <path d="m834.39,279.45h3.52v10.77h-3.52v-10.77Z"/>
  <path d="m927.46,317.79h3.51v10.78h-3.51v-10.78Z"/>
  <path d="m854.3,442.41h-3.52v-10.77h3.52v10.77Z"/>
  <path d="m764.27,268.57h3.52v10.77h-3.52v-10.77Z"/>
  <path d="m930.99,431.55h-3.51v-10.8h3.51v10.8Z"/>
  <path d="m943.88,279.45h3.52v10.77h-3.52v-10.77Z"/>
  <path d="m747.83,317.71v-10.78h3.54v10.78h-3.54Z"/>
  <path d="m823.33,420.72h3.52v10.77h-3.52v-10.77Z"/>
  <path d="m753.39,323.32h3.52v10.77h-3.52v-10.77Z"/>
  <path d="m783.14,295.78h-3.52v-10.77h3.52v10.77Z"/>
  <path d="m848.8,301.41v10.76h-3.55v-10.76h3.55Z"/>
  <path d="m799.55,295.78h-3.52v-10.77h3.52v10.77Z"/>
  <path d="m837.89,312.18h-3.52v-10.77h3.52v10.77Z"/>
  <path d="m817.97,284.98h3.53v10.77h-3.53v-10.77Z"/>
  <path d="m845.27,284.97h3.52v10.77h-3.52v-10.77Z"/>
  <path d="m859.83,295.78h-3.52v-10.77h3.52v10.77Z"/>
  <path d="m832.38,312.18h-3.51v-10.78h3.51v10.78Z"/>
  <path d="m887.11,345h-3.51v-10.8h3.51v10.8Z"/>
  <path d="m826.84,220.3h-3.52v-10.77h3.52v10.77Z"/>
  <path d="m883.61,400h3.52v10.77h-3.52v-10.77Z"/>
  <path d="m861.66,405.26v-10.78h3.52v10.78h-3.52Z"/>
  <path d="m783.14,312.18h-3.52v-10.77h3.52v10.77Z"/>
  <path d="m845.25,241.11h3.52v10.78h-3.52v-10.78Z"/>
  <path d="m909.05,257.43h-3.52v-10.77h3.52v10.77Z"/>
  <path d="m870.71,251.91h-3.52v-10.77h3.52v10.77Z"/>
  <path d="m872.74,241.09h3.49v10.8h-3.49v-10.8Z"/>
  <path d="m764.27,356.13h3.52v10.77h-3.52v-10.77Z"/>
  <path d="m794.05,356.14v10.77h-3.54v-10.77h3.54Z"/>
  <path d="m859.83,383.34h-3.52v-10.77h3.52v10.77Z"/>
  <path d="m769.79,372.54h3.52v10.77h-3.52v-10.77Z"/>
  <path d="m806.92,356.13h3.52v10.77h-3.52v-10.77Z"/>
  <path d="m823.33,268.57h3.52v10.77h-3.52v-10.77Z"/>
  <path d="m968.1,372.48h-3.49v-10.8h3.49v10.8Z"/>
  <path d="m930.98,372.46h-3.52v-10.77h3.52v10.77Z"/>
  <path d="m856.31,356.11h3.5v10.8h-3.5v-10.8Z"/>
  <path d="m887.12,366.93h-3.52v-10.77h3.52v10.77Z"/>
  <path d="m973.64,366.93h-3.52v-10.77h3.52v10.77Z"/>
  <path d="m883.61,306.91h3.52v10.77h-3.52v-10.77Z"/>
  <path d="m805.07,372.47h-3.68v-5.45h3.68v5.45Z"/>
  <path d="m801.4,334.2h3.69v5.42h-3.69v-5.42Z"/>
  <path d="m894.49,367.01h3.7v5.42h-3.7v-5.42Z"/>
  <path d="m805.1,356.15v5.43h-3.69v-5.43h3.69Z"/>
  <path d="m805.07,323.24h-3.69v-5.42h3.69v5.42Z"/>
  <path d="m843.44,317.8v5.41h-3.7v-5.41h3.7Z"/>
  <path d="m894.46,225.82v-5.42h3.71v5.42h-3.71Z"/>
  <path d="m839.72,241.02v-5.41h3.7v5.41h-3.7Z"/>
  <path d="m805.12,345.09v5.41h-3.72v-5.41h3.72Z"/>
  <path d="m843.42,284.9h-3.69v-5.42h3.69v5.42Z"/>
  <path d="m898.18,241.03h-3.69v-5.43h3.69v5.43Z"/>
  <path d="m898.16,339.65h-3.68v-5.45h3.68v5.45Z"/>
  <path d="m936.51,306.83h-3.69v-5.42h3.69v5.42Z"/>
  <path d="m894.47,416.32v-5.42h3.71v5.42h-3.71Z"/>
  <path d="m839.73,295.83h3.68v5.45h-3.68v-5.45Z"/>
  <path d="m898.17,268.51h-3.68v-5.45h3.68v5.45Z"/>
  <path d="m898.16,394.4h-3.68v-5.45h3.68v5.45Z"/>
  <path d="m795.84,413.93c.1-.38.22-.76.3-1.14q.29-1.29,1.73-1.13c-.44,1.48-.85,2.96-1.33,4.4-.05.16-.53.26-.8.24-.21-.02-.51-.22-.59-.42-.24-.58-.4-1.19-.65-2.01-.25.8-.39,1.43-.65,2.01-.09.21-.45.4-.69.42-.25.02-.69-.14-.75-.32-.47-1.41-.87-2.84-1.29-4.26,1.35-.31,1.45-.26,1.71.93.09.42.18.84.42,1.29.17-.58.36-1.15.49-1.73.09-.43.25-.63.73-.64.48,0,.67.2.77.61.14.58.29,1.16.44,1.75.05,0,.11,0,.16,0Z"/>
  <path d="m843.45,225.94v5.23h-3.72v-5.23h3.72Z"/>
  <path d="m894.47,405.25v-5.25h3.69v5.25h-3.69Z"/>
  <path d="m898.19,285v5.25h-3.69v-5.25h3.69Z"/>
  <path d="m894.49,420.72h3.68v5.28h-3.68v-5.28Z"/>
  <path d="m805.08,290.25h-3.69v-5.25h3.69v5.25Z"/>
  <path d="m936.51,231.18h-3.7v-5.25h3.7v5.25Z"/>
  <path d="m894.48,378.07h3.69v5.26h-3.69v-5.26Z"/>
  <path d="m839.72,312.16v-5.24h3.69v5.24h-3.69Z"/>
  <path d="m843.44,383.35h-3.7v-5.27h3.7v5.27Z"/>
  <path d="m936.51,426h-3.69v-5.25h3.69v5.25Z"/>
  <path d="m905.53,350.6h3.52v5.43h-3.52v-5.43Z"/>
  <path d="m815.98,290.33v5.42h-3.54v-5.42h3.54Z"/>
  <path d="m854.31,209.42h-3.52v-5.43h3.52v5.43Z"/>
  <path d="m925.46,372.48h-3.5v-5.45h3.5v5.45Z"/>
  <path d="m916.42,431.61h3.52v5.42h-3.52v-5.42Z"/>
  <path d="m815.97,312.28v5.43h-3.52v-5.43h3.52Z"/>
  <path d="m817.96,317.69v-5.42h3.52v5.42h-3.52Z"/>
  <path d="m899.99,317.68v-5.41h3.55v5.41h-3.55Z"/>
  <path d="m881.62,214.89v5.4h-3.55v-5.4h3.55Z"/>
  <path d="m941.88,317.71h-3.52v-5.44h3.52v5.44Z"/>
  <path d="m949.39,317.69v-5.42h3.52v5.42h-3.52Z"/>
  <path d="m905.54,431.61h3.52v5.42h-3.52v-5.42Z"/>
  <path d="m810.42,323.24h-3.5v-5.44h3.5v5.44Z"/>
  <path d="m832.36,323.24h-3.51v-5.45h3.51v5.45Z"/>
  <path d="m925.47,214.87v5.43h-3.52v-5.43h3.52Z"/>
  <path d="m854.3,323.24h-3.52v-5.42h3.52v5.42Z"/>
  <path d="m865.19,323.26h-3.5v-5.45h3.5v5.45Z"/>
  <path d="m881.59,323.24h-3.52v-5.42h3.52v5.42Z"/>
  <path d="m870.74,214.89v5.4h-3.55v-5.4h3.55Z"/>
  <path d="m927.48,214.85h3.52v5.42h-3.52v-5.42Z"/>
  <path d="m892.64,437.06h-3.52v-5.42h3.52v5.42Z"/>
  <path d="m958.27,323.24h-3.52v-5.42h3.52v5.42Z"/>
  <path d="m812.44,279.43h3.51v5.45h-3.51v-5.45Z"/>
  <path d="m990.07,323.24h-3.52v-5.44h3.52v5.44Z"/>
  <path d="m854.3,284.9h-3.52v-5.42h3.52v5.42Z"/>
  <path d="m938.37,426.06h3.49v5.45h-3.49v-5.45Z"/>
  <path d="m925.47,426.09v5.41h-3.53v-5.41h3.53Z"/>
  <path d="m903.55,426.08v5.42h-3.54v-5.42h3.54Z"/>
  <path d="m837.89,431.53h-3.51v-5.45h3.51v5.45Z"/>
  <path d="m925.46,284.89h-3.52v-5.42h3.52v5.42Z"/>
  <path d="m958.27,284.9h-3.52v-5.42h3.52v5.42Z"/>
  <path d="m850.79,235.58h3.52v5.42h-3.52v-5.42Z"/>
  <path d="m979.02,279.45v5.42h-3.54v-5.42h3.54Z"/>
  <path d="m914.59,306.83h-3.52v-5.44h3.52v5.44Z"/>
  <path d="m769.78,328.67h3.52v5.43h-3.52v-5.43Z"/>
  <path d="m881.58,241.03h-3.51v-5.45h3.51v5.45Z"/>
  <path d="m919.95,220.39v5.41h-3.53v-5.41h3.53Z"/>
  <path d="m883.61,263.04h3.52v5.42h-3.52v-5.42Z"/>
  <path d="m952.94,410.89v5.41h-3.53v-5.41h3.53Z"/>
  <path d="m911.06,328.67h3.52v5.43h-3.52v-5.43Z"/>
  <path d="m828.86,263.04h3.52v5.42h-3.52v-5.42Z"/>
  <path d="m812.45,220.38h3.52v5.42h-3.52v-5.42Z"/>
  <path d="m968.13,262.96h-3.52v-5.43h3.52v5.43Z"/>
  <path d="m872.74,257.51h3.5v5.45h-3.5v-5.45Z"/>
  <path d="m870.71,262.96h-3.52v-5.42h3.52v5.42Z"/>
  <path d="m848.79,257.52v5.41h-3.53v-5.41h3.53Z"/>
  <path d="m796.03,339.63v-5.41h3.53v5.41h-3.53Z"/>
  <path d="m941.89,410.89v5.42h-3.54v-5.42h3.54Z"/>
  <path d="m826.83,262.97h-3.51v-5.45h3.51v5.45Z"/>
  <path d="m815.96,339.65h-3.52v-5.42h3.52v5.42Z"/>
  <path d="m921.95,410.88h3.52v5.42h-3.52v-5.42Z"/>
  <path d="m854.3,339.65h-3.52v-5.45h3.52v5.45Z"/>
  <path d="m970.13,251.96h3.5v5.45h-3.5v-5.45Z"/>
  <path d="m878.08,334.2h3.52v5.42h-3.52v-5.42Z"/>
  <path d="m821.5,301.39v5.41h-3.53v-5.41h3.53Z"/>
  <path d="m892.64,339.65h-3.52v-5.42h3.52v5.42Z"/>
  <path d="m815.98,301.4v5.42h-3.52v-5.42h3.52Z"/>
  <path d="m889.11,257.41v-5.42h3.52v5.42h-3.52Z"/>
  <path d="m916.42,410.88h3.52v5.42h-3.52v-5.42Z"/>
  <path d="m887.14,252.01v5.41h-3.52v-5.41h3.52Z"/>
  <path d="m881.59,257.44h-3.52v-5.42h3.52v5.42Z"/>
  <path d="m861.65,225.8v-5.41h3.55v5.41h-3.55Z"/>
  <path d="m914.6,410.89v5.42h-3.54v-5.42h3.54Z"/>
  <path d="m905.54,410.88h3.52v5.42h-3.52v-5.42Z"/>
  <path d="m909.05,279.37h-3.52v-5.42h3.52v5.42Z"/>
  <path d="m867.18,416.3v-5.41h3.52v5.41h-3.52Z"/>
  <path d="m854.32,410.9v5.42h-3.52v-5.42h3.52Z"/>
  <path d="m834.39,410.88h3.52v5.42h-3.52v-5.42Z"/>
  <path d="m806.91,301.38h3.52v5.44h-3.52v-5.44Z"/>
  <path d="m943.85,410.77v-5.4h3.55v5.4h-3.55Z"/>
  <path d="m859.86,252.02v5.4h-3.55v-5.4h3.55Z"/>
  <path d="m790.51,345.06h3.51v5.45h-3.51v-5.45Z"/>
  <path d="m796.02,350.52v-5.42h3.53v5.42h-3.53Z"/>
  <path d="m903.55,405.38v5.4h-3.55v-5.4h3.55Z"/>
  <path d="m812.45,345.08h3.52v5.42h-3.52v-5.42Z"/>
  <path d="m821.5,345.09v5.43h-3.52v-5.43h3.52Z"/>
  <path d="m826.86,345.08v5.43h-3.54v-5.43h3.54Z"/>
  <path d="m834.38,345.06h3.5v5.45h-3.5v-5.45Z"/>
  <path d="m769.77,257.43v-5.43h3.54v5.43h-3.54Z"/>
  <path d="m919.93,350.53h-3.52v-5.42h3.52v5.42Z"/>
  <path d="m952.93,350.53h-3.52v-5.43h3.52v5.43Z"/>
  <path d="m986.54,345.08h3.52v5.42h-3.52v-5.42Z"/>
  <path d="m889.14,405.35h3.52v5.42h-3.52v-5.42Z"/>
  <path d="m769.79,350.6h3.52v5.42h-3.52v-5.42Z"/>
  <path d="m764.28,251.98h3.5v5.44h-3.5v-5.44Z"/>
  <path d="m848.78,410.8h-3.53v-5.42h3.53v5.42Z"/>
  <path d="m986.54,295.85h3.52v5.42h-3.52v-5.42Z"/>
  <path d="m889.12,356.03v-5.43h3.52v5.43h-3.52Z"/>
  <path d="m979,301.3h-3.52v-5.42h3.52v5.42Z"/>
  <path d="m758.89,284.89v-5.41h3.53v5.41h-3.53Z"/>
  <path d="m947.41,394.48v5.41h-3.53v-5.41h3.53Z"/>
  <path d="m927.46,356.04v-5.41h3.53v5.41h-3.53Z"/>
  <path d="m968.11,356.05h-3.52v-5.42h3.52v5.42Z"/>
  <path d="m981.02,350.6h3.52v5.45h-3.52v-5.45Z"/>
  <path d="m968.1,301.32h-3.49v-5.45h3.49v5.45Z"/>
  <path d="m941.86,399.92h-3.52v-5.42h3.52v5.42Z"/>
  <path d="m943.9,295.85h3.5v5.44h-3.5v-5.44Z"/>
  <path d="m817.97,220.36h3.5v5.44h-3.5v-5.44Z"/>
  <path d="m812.43,361.57v-5.41h3.53v5.41h-3.53Z"/>
  <path d="m817.93,361.56v-5.4h3.55v5.4h-3.55Z"/>
  <path d="m889.13,203.97h3.52v5.42h-3.52v-5.42Z"/>
  <path d="m837.89,361.58h-3.52v-5.42h3.52v5.42Z"/>
  <path d="m905.55,295.85h3.51v5.45h-3.51v-5.45Z"/>
  <path d="m832.38,220.4v5.42h-3.52v-5.42h3.52Z"/>
  <path d="m900.02,394.47h3.52v5.42h-3.52v-5.42Z"/>
  <path d="m949.42,356.12h3.5v5.45h-3.5v-5.45Z"/>
  <path d="m854.3,301.3h-3.52v-5.42h3.52v5.42Z"/>
  <path d="m887.11,209.42h-3.52v-5.45h3.52v5.45Z"/>
  <path d="m889.15,394.47h3.5v5.44h-3.5v-5.44Z"/>
  <path d="m887.14,273.93v5.42h-3.53v-5.42h3.53Z"/>
  <path d="m832.39,235.59v5.42h-3.53v-5.42h3.53Z"/>
  <path d="m867.18,209.41v-5.41h3.53v5.41h-3.53Z"/>
  <path d="m845.27,394.47h3.52v5.42h-3.52v-5.42Z"/>
  <path d="m826.85,241.03h-3.52v-5.43h3.52v5.43Z"/>
  <path d="m788.49,372.47h-3.51v-5.45h3.51v5.45Z"/>
  <path d="m796.05,367.01h3.51v5.45h-3.51v-5.45Z"/>
  <path d="m751.37,301.32h-3.51v-5.45h3.51v5.45Z"/>
  <path d="m812.45,367.01h3.52v5.42h-3.52v-5.42Z"/>
  <path d="m821.5,367.02v5.41h-3.53v-5.41h3.53Z"/>
  <path d="m845.24,372.45v-5.42h3.54v5.42h-3.54Z"/>
  <path d="m854.32,372.46h-3.52v-5.44h3.52v5.44Z"/>
  <path d="m952.93,295.8h-3.51v-5.45h3.51v5.45Z"/>
  <path d="m905.55,367.01h3.51v5.45h-3.51v-5.45Z"/>
  <path d="m806.92,279.45h3.52v5.42h-3.52v-5.42Z"/>
  <path d="m916.41,367.01h3.52v5.43h-3.52v-5.43Z"/>
  <path d="m758.9,290.31h3.51v5.45h-3.51v-5.45Z"/>
  <path d="m975.47,372.45v-5.41h3.53v5.41h-3.53Z"/>
  <path d="m911.04,225.8v-5.4h3.55v5.4h-3.55Z"/>
  <path d="m900.02,290.32h3.51v5.45h-3.51v-5.45Z"/>
  <path d="m876.26,372.57v5.41h-3.55v-5.41h3.55Z"/>
  <path d="m887.13,377.98h-3.52v-5.43h3.52v5.43Z"/>
  <path d="m903.51,377.99h-3.5v-5.44h3.5v5.44Z"/>
  <path d="m958.29,377.99h-3.52v-5.43h3.52v5.43Z"/>
  <path d="m925.45,394.4h-3.51v-5.45h3.51v5.45Z"/>
  <path d="m861.66,241.11h3.52v5.43h-3.52v-5.43Z"/>
  <path d="m865.18,295.78h-3.52v-5.42h3.52v5.42Z"/>
  <path d="m784.96,295.75v-5.4h3.55v5.4h-3.55Z"/>
  <path d="m823.31,295.75v-5.42h3.52v5.42h-3.52Z"/>
  <path d="m837.89,334.12h-3.52v-5.42h3.52v5.42Z"/>
  <path d="m872.73,198.45h3.52v5.42h-3.52v-5.42Z"/>
  <path d="m881.63,198.48v5.39h-3.55v-5.39h3.55Z"/>
  <path d="m758.89,388.84v-5.41h3.55v5.41h-3.55Z"/>
  <path d="m823.31,388.84v-5.42h3.52v5.42h-3.52Z"/>
  <path d="m850.81,383.4h3.49v5.45h-3.49v-5.45Z"/>
  <path d="m943.86,388.84v-5.42h3.52v5.42h-3.52Z"/>
  <path d="m810.43,295.78h-3.52v-5.42h3.52v5.42Z"/>
  <path d="m973.64,388.87h-3.52v-5.42h3.52v5.42Z"/>
  <path d="m887.16,241.14v5.39h-3.55v-5.39h3.55Z"/>
  <path d="m773.32,301.31h-3.52v-5.44h3.52v5.44Z"/>
  <path d="m925.5,225.92v5.23h-3.55v-5.23h3.55Z"/>
  <path d="m783.16,328.59h-3.52v-5.27h3.52v5.27Z"/>
  <path d="m921.93,383.32v-5.25h3.52v5.25h-3.52Z"/>
  <path d="m905.53,378.06h3.52v5.26h-3.52v-5.26Z"/>
  <path d="m909.07,306.93v5.24h-3.52v-5.24h3.52Z"/>
  <path d="m753.38,339.7h3.51v5.28h-3.51v-5.28Z"/>
  <path d="m865.18,383.34h-3.52v-5.25h3.52v5.25Z"/>
  <path d="m872.72,225.89h3.5v5.27h-3.5v-5.27Z"/>
  <path d="m867.18,231.18v-5.25h3.54v5.25h-3.54Z"/>
  <path d="m964.61,306.91h3.52v5.25h-3.52v-5.25Z"/>
  <path d="m799.57,225.92v5.24h-3.53v-5.24h3.53Z"/>
  <path d="m958.27,366.93h-3.52v-5.25h3.52v5.25Z"/>
  <path d="m892.64,366.93h-3.52v-5.25h3.52v5.25Z"/>
  <path d="m943.88,225.91h3.53v5.25h-3.53v-5.25Z"/>
  <path d="m872.73,361.66h3.52v5.25h-3.52v-5.25Z"/>
  <path d="m975.47,268.56h3.52v5.27h-3.52v-5.27Z"/>
  <path d="m810.45,231.18h-3.52v-5.26h3.52v5.26Z"/>
  <path d="m826.86,246.64v5.25h-3.54v-5.25h3.54Z"/>
  <path d="m905.52,290.23v-5.25h3.52v5.25h-3.52Z"/>
  <path d="m889.13,284.98h3.53v5.25h-3.53v-5.25Z"/>
  <path d="m905.54,400h3.52v5.25h-3.52v-5.25Z"/>
  <path d="m949.41,400h3.52v5.25h-3.52v-5.25Z"/>
  <path d="m968.16,246.67v5.21h-3.55v-5.21h3.55Z"/>
  <path d="m821.48,214.78h-3.52v-5.25h3.52v5.25Z"/>
  <path d="m892.64,273.85h-3.51v-5.28h3.51v5.28Z"/>
  <path d="m887.16,225.92v5.23h-3.55v-5.23h3.55Z"/>
  <path d="m927.46,344.99v-5.24h3.53v5.24h-3.53Z"/>
  <path d="m911.07,339.72h3.52v5.25h-3.52v-5.25Z"/>
  <path d="m903.54,339.74v5.25h-3.52v-5.25h3.52Z"/>
  <path d="m865.19,345.02h-3.51v-5.28h3.51v5.28Z"/>
  <path d="m859.85,339.73v5.25h-3.54v-5.25h3.54Z"/>
  <path d="m773.3,345.02h-3.5v-5.27h3.5v5.27Z"/>
  <path d="m828.84,214.76v-5.25h3.52v5.25h-3.52Z"/>
  <path d="m876.26,209.53v5.24h-3.52v-5.24h3.52Z"/>
  <path d="m848.78,273.84h-3.51v-5.25h3.51v5.25Z"/>
  <path d="m837.89,231.18h-3.52v-5.25h3.52v5.25Z"/>
  <path d="m927.47,306.89h3.5v5.27h-3.5v-5.27Z"/>
  <path d="m876.23,442.41h-3.51v-5.28h3.51v5.28Z"/>
  <path d="m861.65,442.4v-5.24h3.53v5.24h-3.53Z"/>
  <path d="m794.04,290.25h-3.52v-5.27h3.52v5.27Z"/>
  <path d="m859.85,437.16v5.24h-3.52v-5.24h3.52Z"/>
  <path d="m986.52,306.9h3.53v5.27h-3.53v-5.27Z"/>
  <path d="m861.67,306.91h3.52v5.25h-3.52v-5.25Z"/>
  <path d="m762.42,312.18h-3.52v-5.25h3.52v5.25Z"/>
  <path d="m762.44,268.57v5.25h-3.54v-5.25h3.54Z"/>
  <path d="m747.86,323.32h3.52v5.25h-3.52v-5.25Z"/>
  <path d="m834.37,268.57h3.52v5.26h-3.52v-5.26Z"/>
  <path d="m794.03,426h-3.52v-5.25h3.52v5.25Z"/>
  <path d="m905.5,214.74v-5.21h3.55v5.21h-3.55Z"/>
  <path d="m911.07,209.5h3.53v5.25h-3.53v-5.25Z"/>
  <path d="m964.6,323.3h3.5v5.27h-3.5v-5.27Z"/>
  <path d="m828.81,425.98v-5.23h3.55v5.23h-3.55Z"/>
  <path d="m850.79,420.72h3.52v5.25h-3.52v-5.25Z"/>
  <path d="m938.34,328.58v-5.24h3.53v5.24h-3.53Z"/>
  <path d="m892.65,328.59h-3.52v-5.26h3.52v5.26Z"/>
  <path d="m905.52,425.98v-5.25h3.52v5.25h-3.52Z"/>
  <path d="m911.05,425.99v-5.24h3.53v5.24h-3.53Z"/>
  <path d="m919.93,426h-3.52v-5.25h3.52v5.25Z"/>
  <path d="m794.02,231.18h-3.52v-5.25h3.52v5.25Z"/>
  <path d="m856.3,328.57v-5.25h3.52v5.25h-3.52Z"/>
  <path d="m821.48,328.59h-3.52v-5.25h3.52v5.25Z"/>
  <path d="m815.95,328.59h-3.51v-5.28h3.51v5.28Z"/>
  <path d="m981.02,339.72h3.52v5.25h-3.52v-5.25Z"/>
  <path d="m869.18,446.73c.78-.3,1.18-.12,1.33.68.13.69.38,1.35.73,1.99.18-.78.34-1.56.58-2.32.07-.22.39-.48.6-.49.21,0,.55.24.63.45.28.75.48,1.53.85,2.32.16-.7.38-1.39.48-2.1.1-.78.49-.95,1.28-.72-.39,1.58-.76,3.16-1.18,4.73-.04.15-.4.3-.6.29-.19-.01-.46-.2-.53-.38-.29-.76-.52-1.54-.95-2.29-.19.76-.36,1.54-.6,2.28-.06.2-.36.4-.58.44-.18.03-.54-.13-.59-.29-.51-1.52-.96-3.05-1.44-4.59Z"/>
  <path d="m911.05,439.04c.33-.12.68-.25,1.07-.39.58,1.6,1.13,3.13,1.7,4.74-.33.12-.61.22-.96.34-.28-.76-.54-1.44-.8-2.13-.08,0-.16,0-.24,0,0,.6.04,1.21-.02,1.81-.03.29-.19.71-.4.81-.19.08-.6-.14-.82-.34-.42-.38-.78-.83-1.33-1.18.21.67.43,1.34.67,2.09-.3.11-.58.21-.94.34-.57-1.59-1.12-3.12-1.67-4.64.67-.6,1.16-.5,1.67.16.52.67,1.13,1.26,1.83,2.03.08-1.33.15-2.47.21-3.65Z"/>
  <path d="m808.63,411.53c.98.07,1.84.06,2.66.22.94.18,1.48,1.05,1.49,2.15.02,1.14-.51,2.04-1.47,2.25-.72.16-1.48.16-2.22.15-.16,0-.44-.34-.45-.52-.04-1.34-.02-2.69-.02-4.25Zm1.4,3.87c.57-.33,1.15-.47,1.24-.77.14-.47.07-1.09-.13-1.54-.1-.23-.69-.25-1.11-.38v2.69Z"/>
  <path d="m807.88,413.95c0,1.44-.89,2.39-2.25,2.4-1.39.01-2.34-.98-2.32-2.43.02-1.42.95-2.37,2.3-2.37,1.35,0,2.26.97,2.26,2.4Zm-1.36,0c-.09-.6-.19-1.22-.95-1.19-.76.04-.82.66-.81,1.26,0,.59.14,1.14.85,1.13.77,0,.83-.64.91-1.21Z"/>
  <path d="m790.79,413.99c0,1.44-.9,2.37-2.27,2.36-1.36,0-2.25-.94-2.26-2.38,0-1.47.93-2.44,2.32-2.41,1.35.03,2.22.98,2.21,2.43Zm-3.13-.08c0,.67.11,1.26.88,1.24.75-.02.88-.64.87-1.24,0-.57-.17-1.15-.87-1.15-.76,0-.89.57-.88,1.15Z"/>
  <path d="m813.67,411.58c.84,0,1.62.04,2.39-.01.8-.06,1.15.19.87,1.12h-1.88q-.03.58,1.74.81v.87c-.62.11-1.21.21-1.8.34-.03,0,0,.25,0,.47h1.88c.24,1.11.21,1.15-.82,1.15-.77,0-1.54,0-2.38,0v-4.75Z"/>
  <path d="m887.11,450.35c-.28-1.68-.54-3.26-.82-4.98,1.24-.13,2.44-.76,3.62.15.77.59,1.16,2,.81,3-.59,1.71-2.15,1.55-3.62,1.83Zm.4-4.14c.17.99.34,1.98.51,2.97,1.48-.18,1.94-.73,1.71-1.91-.21-1.11-.83-1.42-2.22-1.06Z"/>
  <path d="m830.15,440.19c.62.2,1.1.36,1.59.52.75.24,1.41.6,1.45,1.49.04.86-.35,1.49-1.23,1.84.11.67.22,1.34.33,2.04-.83.05-1.18-.29-1.28-1.06-.07-.51.09-1.28-.88-1.31-.18.52-.36,1.02-.56,1.59-.33-.1-.62-.19-1-.3.52-1.61,1.03-3.18,1.56-4.82Zm.26,2.68c.58,0,1.04.04,1.48-.03.1-.02.27-.57.18-.66-.31-.31-.71-.53-1.17-.84-.19.57-.31.94-.5,1.53Z"/>
  <path d="m907.4,443.98c0,1.33-.93,2.29-2.25,2.3-1.35,0-2.41-1.21-2.44-2.8-.02-1.36.98-2.39,2.3-2.37,1.32.02,2.38,1.3,2.39,2.87Zm-1.05.04c0-.99-.65-1.88-1.39-1.89-.68,0-1.21.57-1.19,1.31.02,1.02.67,1.85,1.45,1.83.68-.02,1.13-.51,1.14-1.25Z"/>
  <path d="m881.13,448.16c-.01-1.47.9-2.46,2.27-2.47,1.37,0,2.35,1.13,2.35,2.73,0,1.38-.94,2.41-2.25,2.45-1.35.04-2.36-1.11-2.38-2.71Zm3.54.29c0-1.06-.48-1.73-1.25-1.75-.76-.02-1.25.55-1.24,1.43.02,1.02.55,1.73,1.3,1.73.71,0,1.18-.56,1.18-1.41Z"/>
  <path d="m864.2,449.09c.01-1.53.93-2.57,2.29-2.58,1.36,0,2.31,1.04,2.31,2.56,0,1.56-.97,2.65-2.34,2.63-1.36-.02-2.27-1.08-2.25-2.61Zm3.51.02c.01-.96-.45-1.58-1.19-1.6-.75-.02-1.27.66-1.27,1.63,0,.93.51,1.57,1.25,1.56.72-.01,1.2-.64,1.21-1.59Z"/>
  <path d="m802.5,413.38c-.64.06-1.25.2-1.59-.49-.02-.04-.11-.1-.14-.09-.34.12-.95.22-.98.39-.07.57.02,1.18.17,1.75.02.09.66.12.97.03.49-.14.93-.42,1.48-.68.07,1.25-.68,1.99-1.81,2.05-1.33.07-2.29-.74-2.39-2.03-.12-1.55.62-2.61,1.93-2.76,1-.12,2.39.44,2.35,1.83Z"/>
  <path d="m843.52,448.98c-.72.05-1.19-.1-1.15-.84.03-.65-.44-.69-.89-.81-.46-.11-.86-.15-1.07.39-.29.77-.82.49-1.44.3.91-1.43,1.79-2.84,2.7-4.23.26-.39,1.17-.22,1.24.23.23,1.64.41,3.29.61,4.96Z"/>
  <path d="m894.85,446.85c-.69.16-1.25.29-1.8.43-.05.01-.09.06-.19.14.06.27.13.56.21.91.74-.13,1.44-.26,2.18-.39.07.3.13.55.22.9-1.08.23-2.13.44-3.27.68-.34-1.65-.66-3.24-1.01-4.95,1.05-.22,2.07-.43,3.17-.66.1.29.18.54.3.91-.74.17-1.42.32-2.17.49.04.33.08.63.13,1.01.69-.12,1.3-.22,2.03-.34.06.27.12.55.2.89Z"/>
  <path d="m848.55,446.94c-.27-.27-.55-.55-.82-.82-.04-.04-.06-.1-.09-.14-.35-.49-1.12-.6-1.62-.22-.67.51-.85,1.9-.33,2.51.42.49,1.21.61,1.59.11.42-.55.8-.39,1.26-.19-.4,1.2-1.37,1.73-2.54,1.41-1.29-.35-1.93-1.55-1.61-3,.32-1.47,1.39-2.28,2.7-2.07,1.14.19,1.78,1.02,1.68,2.18-.08.08-.16.15-.23.23Z"/>
  <path d="m901.95,443.91c-.48.24-.94.45-1.31-.17-.03-.04-.09-.06-.14-.09-.54-.28-1.27-.02-1.53.54-.34.72.07,2.03.74,2.37.56.29,1.23.04,1.56-.5.21-.35.52-.64.91-1.1.36,1.36-.21,2.32-1.3,2.63-1.28.37-2.42-.27-2.89-1.63-.5-1.46-.02-2.79,1.19-3.27,1.22-.48,2.27-.03,2.79,1.2Z"/>
  <path d="m880.39,448.21c-.54-.28-.91-.46-1.28-.66-.1-.05-.16-.16-.26-.22-.53-.32-1.24-.11-1.57.44-.41.71-.15,2.05.47,2.42.55.33,1.17.13,1.58-.39.21-.27.58-.42.96-.69.19,1.23-.44,2-1.58,2.21-1.33.24-2.39-.58-2.65-2.06-.27-1.51.46-2.78,1.72-3.02,1.33-.25,2.27.36,2.6,1.98Z"/>
  <path d="m825.76,442.26c-.21.52-.39.97-.6,1.48-.31-.1-.59-.19-.99-.31.58-1.59,1.14-3.14,1.73-4.75.67.24,1.29.43,1.88.69.96.41,1.31,1.25.96,2.18-.33.88-1.13,1.27-2.1,1.01-.28-.07-.54-.18-.89-.3Zm.28-.79c.61,0,1.07.06,1.5-.04.13-.03.3-.61.21-.73-.28-.33-.68-.54-1.12-.86-.22.6-.36,1-.58,1.62Z"/>
  <path d="m781.81,411.64v1.05h-1.78c-.22.53-.11.76.42.74.37-.01.74,0,1.15,0v1.02c-.54.03-1.07.06-1.68.09v1.72h-1.3v-4.62h3.18Z"/>
  <path d="m837.23,445.98c.62-.92,1.14-1.6,1.55-2.34.39-.7.85-.86,1.58-.38-.98,1.43-1.97,2.86-2.95,4.29-.86.06-1.17-.31-1.2-1.15-.05-1.43-.22-2.85-.35-4.29.8-.09,1.16.19,1.17.97.02.88.11,1.76.19,2.9Z"/>
  <path d="m857.63,447.06c-.05.36-.09.66-.13,1,.69.09,1.31.17,1.98.26-.03.31-.06.56-.1.89-.63-.03-1.22-.07-1.93-.11-.08.64-.16,1.27-.24,1.93h-1.02c.14-1.69.28-3.32.43-5.05,1.11.09,2.15.18,3.26.27-.03.33-.06.6-.09.93-.74-.04-1.42-.08-2.16-.12Z"/>
  <path d="m782.6,411.63h1.25v3.54h1.86v1.1h-3.11v-4.65Z"/>
  <path d="m851.7,450.45c-.48-.06-.76-.1-1.2-.15.86-1.97-.42-3.48-.98-5.18,1.69-.24,1.39,1.34,2,2.07.89-.33.93-2.18,2.54-1.4-.95,1.47-2.62,2.53-2.36,4.66Z"/>
  <path d="m861.59,450.46c.76.05,1.38.1,2.05.15v.94c-1.05-.06-2.07-.11-3.17-.17.09-1.69.18-3.31.27-4.98h1.05c-.07,1.35-.13,2.66-.2,4.07Z"/>
  <path d="m833.88,446.65c-.37-.11-.64-.19-1.02-.3.47-1.61.93-3.18,1.42-4.83.36.11.65.19,1.02.3-.47,1.62-.93,3.17-1.42,4.83Z"/>
  <path d="m896.86,447.06c.27.39.58.64.56.85-.02.22-.36.41-.56.61-.22-.22-.56-.41-.61-.66-.04-.18.31-.44.61-.81Z"/>
  <path d="m854.37,449.34c.32.38.67.63.64.81-.04.26-.36.47-.57.7-.2-.2-.54-.38-.57-.61-.03-.21.25-.48.5-.9Z"/>
  <path d="m931.62,246.11h17.16v17.16h-17.16v-17.16Z"/>
  <path d="m789.14,246.11h17.16v17.16h-17.16v-17.16Z"/>
</svg>