<?xml version="1.0" encoding="UTF-8"?>
<svg id="_图层_3" data-name="图层 3" xmlns="http://www.w3.org/2000/svg" viewBox="0 0 1770 633">
  <path d="m674.59,182.88c6.75,0,13.51-.15,20.25.09,2.07.07,3.13-.15,3.8-2.27,3.43-10.79,16.18-18.04,27.25-15.77,18.17,3.73,23.71,18.18,20.05,33.32-.45,1.87-.91,3.19,1.27,4.58,31.01,19.79,51.72,47.32,60.35,83.1,11.4,47.31.15,89.43-32.09,125.6-20.69,23.22-47.2,36.64-77.78,42.16-14.15,2.55-28.21,2.67-42.01-1.73-16.77-5.35-28.64-15.86-32.86-33.41-5.18-21.54,8.65-43.6,30.82-48.91,10.38-2.48,21.1-3.47,31.53-5.77,25.18-5.55,47.73-16.06,65.65-35.32,15.48-16.65,24.15-36.23,23.93-58.79-.28-29.39-12.98-52.5-38.64-67.82-17.23-10.29-35.75-16.6-55.91-17.72-.41-.02-.81-.09-1.21-.15-1.49-.23-2.98-.48-4.47-.72.02-.15.04-.31.05-.46Z"/>
  <path d="m601.71,434.53c-6.91-5.79-14.21-11.17-20.64-17.46-17.71-17.31-30.11-37.88-35.6-62.18-5.06-22.37-1.9-44.08,6.52-65.15,1.04-2.61,1.31-4.48-.46-6.95-3.85-5.39-2.87-13.33,1.83-18.29,4.83-5.1,12.33-6.24,18.17-3.22,1.7.88,4.23,1.23,6.01.67,7.72-2.47,15.46-3.4,23.5-2.14.99.15,2.58-.93,3.27-1.88,4.7-6.53,10.43-11.66,18.19-14.27,5-1.68,9.45-.82,13.32,2.74,3.96,3.65,3.76,8.15,2.18,12.7-1.5,4.32-3.35,8.51-4.99,12.78-.54,1.42-.82,2.94-1.36,4.36-1.29,3.37-.82,5.88,2.13,8.54,6.16,5.56,5.99,13.04,3.88,20.14-1.53,5.18-4.51,9.94-7.01,14.81-.95,1.85-2.7,2.23-5.16,1.25,1.57-2.46,3.29-4.6,4.39-7.02,2.05-4.49,3.84-9.1,5.55-13.73.73-1.98-.09-3.26-2.42-3.53-1.7-.2-3.41-.65-5.01-1.26-2.69-1.03-2.81-1.95-.6-3.73,1.41-1.13,2.92-2.14,4.76-3.47-1.06-.94-1.82-1.88-2.8-2.44-7.33-4.16-13.89-9.21-19.37-15.68-3.58-4.22-8.4-6.36-13.83-7.09-6.83-.92-13.53-.91-20.15,1.68-8.55,3.35-13.47,9.92-13.82,19.28-.02.41-.02.82,0,1.22.16,4.4.98,6.19-5.36,3.07-.35-.17-.75-.26-1.54-.52-2.26,8.17-4.93,16.15-3.78,24.72.66,4.96,1.81,9.77,5.08,13.85,5.35,6.68,12.55,9.43,20.78,10.13,16.12,1.37,31.03-3.04,45.58-9.37,2.28-.99,4.84-1.86,7.27-1.88,6.59-.04,11.43,6.4,10.66,13.62-.54,5.1-3.11,9.17-6.46,12.86-10.41,11.44-22.53,20.59-36.63,27.02-6.75,3.08-13.57,6.03-20.35,9.07-1.02.46-2.02.98-2.95,1.59-4,2.6-4.49,4.49-2.01,8.51,7.69,12.48,16.94,23.65,27.98,33.32.81.71,1.88,1.13,2.82,1.68-.53.55-1.06,1.1-1.59,1.65Z"/>
  <path d="m731.23,259.8c-.02,8.39-3.94,14.14-10.6,16.59-5.93,2.18-12.09.41-16.84-5.35-5.95-7.21-11.79-14.52-17.37-22-5.68-7.61-1.22-17.02,8.75-18.3,10.09-1.29,18.51,2.86,25.86,9.32,6.23,5.47,9.6,12.49,10.19,19.74Z"/>
  <path d="m564.63,214.61c-.06-12.52,11.47-23.67,24.76-24.27,8.25-.37,14.56,3.05,19.7,9.1,2.28,2.68,2.06,3.94-.97,5.81-11.32,6.98-21.62,15.17-30.69,24.94-3.99,4.3-6.46,3.99-8.89-1.35-2.03-4.45-3.21-9.28-4.77-13.94.29-.1.58-.19.86-.29Z"/>
  <path d="m694.99,314.5c-.98,1.42-1.77,3.04-2.98,4.23-6.52,6.43-14.85,8.08-23.56,8.45-4.62.19-9.18-.33-13.2-2.93-1.02-.66-1.83-1.64-2.74-2.47.16-.31.32-.61.47-.92,1.59.33,3.18.81,4.79.96,3.09.28,6.25.77,9.29.41,2.45-.29,4.54-1.96,4.63-4.9.09-3-1.57-4.46-4.36-5.4-3.35-1.12-6.71-2.45-9.72-4.26-3-1.8-3.15-3.94-.16-5.55,4.13-2.23,8.64-4.04,13.21-5.08,3.78-.86,7.91-.66,11.83-.32,4.14.36,5.42,3.5,2.76,6.57-2.31,2.67-5.03,5.03-7.76,7.29-1.95,1.61-2.94,3.26-2.04,5.79.94,2.63,2.97,3.53,5.49,3.49,4.08-.06,7.34-2.14,10.44-4.54.83-.64,1.74-1.18,2.61-1.76.33.31.67.62,1,.93Z"/>
  <path d="m586.47,302.56c.24-4.92,1.71-9.5,5.04-13.33,3.13-3.59,7.73-4.48,11.25-2.32,3.83,2.36,5.26,6.67,3.66,11.2-1.75,4.97-3.52,9.93-5.31,14.89-1.71,4.74-6.38,5.79-9.88,2.19-3.38-3.47-4.54-7.83-4.76-12.63Z"/>
</svg>