<?xml version="1.0" encoding="UTF-8"?>
<svg id="_图层_3" data-name="图层 3" xmlns="http://www.w3.org/2000/svg" viewBox="0 0 1770 691.8">
  <path d="m644.91,429l-1.04-6h-2.96l-5,13c-12,15-24,6-24,6l.26,6h-20.74l-1.52,12h-43c-23-1-27-16-27-16-16,30-46,27-46,27,3,6,13,8,13,8l.43,19h-47.43l-10.87,14h5.87v22h111l18.52-14h19.48l8.3-8h275.48l8.3,8h19.48l18.52,14h111v-22h5.87l-10.87-14h-47.43l.43-19s10-2,13-8c0,0-30,3-46-27,0,0-4,15-27,16h-43l-1.52-12h-20.74l.26-6s-12,9-24-6l-5-13h-2.96l-1.04,6-85.04.73-85.04-.73Zm4,49.5h-17.39v-16.5h17.39v16.5Zm20,0h-17.39v-16.5h17.39v16.5Zm20,0h-17.39v-16.5h17.39v16.5Zm20,0h-17.39v-16.5h17.39v16.5Zm20,0h-17.39v-16.5h17.39v16.5Zm82.09-16.5h17.39v16.5h-17.39v-16.5Zm-20,0h17.39v16.5h-17.39v-16.5Zm-20,0h17.39v16.5h-17.39v-16.5Zm-20,0h17.39v16.5h-17.39v-16.5Zm-20,0h17.39v16.5h-17.39v-16.5Zm165,69h-17l-15-14h-268.09l-15,14h-17l-15,8.7h-135.91v65.3h10.96c85.04-120,158.87,0,158.87,0h36c40.02-76.46,101.99-79.02,110.17-79.01v.18c.32-.05.63-.11.96-.16.32.05.64.11.96.16v-.18c8.19,0,70.16,2.55,110.17,79.01h36s73.83-120,158.87,0h10.96v-65.3h-135.91l-15-8.7Zm-298.5,51c-8.56,0-15.5-6.94-15.5-15.5s6.94-15.5,15.5-15.5,15.5,6.94,15.5,15.5-6.94,15.5-15.5,15.5Zm261,0c-8.56,0-15.5-6.94-15.5-15.5s6.94-15.5,15.5-15.5,15.5,6.94,15.5,15.5-6.94,15.5-15.5,15.5Zm-434.5-199h19l1-11h7v-12h72v79.13s7,13.87,26,14.87h34.61v-10.57l9.39-.43v-149l-12-1-6-12h-37.96l-.04-7h6.3l-.3-7h-40v7h5v5h-49l1,4v5.09h3.87l.13,4.91h-5.61v15.83l-15.39.17v-8.39l-28-.61v7.26l-27.04,1.74v81.61h35.22l.83-7.61Zm24.61,5.3l-22.61-.3v11.61h66.83l-4.83-22.61h-38.61l-.78,11.3Zm-22.61,103.7h50l1-9-10-7v-10c6,3,23.48-4,23.48-4l2.35-56.91h-66.83v86.91Zm31-120.17h33.48l2.35,10.17h22.7v-18h-58.52v7.83Zm60,62.17l-1.48-47.3h-22.7l6.17,16.3-1,56s15-11,19-25Zm68-147h14.26v154.61h5.74v-12s29,19.39,31-13.61l12.91.04v6.8h35.91v-172.85l-13.3,11.61-16.52-20.61-10,9-18-24-18,24-7-9-20,20.09-17-11.09v25.17h12.87l7.13,11.83Zm126.52-7.65h-22.61v143.5h20l2.61-143.5Zm36.87,58.65h-34.39v84.85l32.39.15,2-85Zm192.61,85s6.91,34,34.96,36v-125.2h-27.13l-1.57,4.2h-19.83l-.43,29h-12.61l2.61,84s16,2,24-28Zm53-128v197h28.39l20.35,25h45.91v-250h-94.65v28Zm149.43,62.09v-141.09h-8.48l.04-22h-7.09l.09,7h-23l-1-28h-10.33l-.67-21h-12.24l-.76,21h-11v29h-21v-6h-8v20h-12v45.09h66.39v96h49.04Zm-48.43,5.91v149.57h166.35v-149.57h-166.35Z"/>
</svg>