<?xml version="1.0" encoding="UTF-8"?>
<svg id="_图层_3" data-name="图层 3" xmlns="http://www.w3.org/2000/svg" viewBox="0 0 1770 633">
  <path d="m987.34,79c-15.17,63.67-73.92,139.45-127.4,164.2-2.09-4.76-4.52-9.4-6.2-14.31-7.17-21-7.67-42.78-6.84-64.63.79-20.83,3.44-41.42,9.87-61.37.96-2.97,2.12-5.88,3.59-9.93,1.72,3.28,3.14,5.63,4.22,8.13,7.97,18.46,9.33,37.98,8.77,57.72-.7,24.35-4.05,48.36-10.21,71.95-.16.61-.26,1.24-.04,2.06,25.42-63.95,63.85-117.31,124.24-153.83Z"/>
  <path d="m597.17,358.45c13.72-4.21,26.97-5.3,40.52-4.29,24.63,1.84,47.18,10.74,69.63,20.04,6.99,2.89,13.98,5.78,21.28,8.2-59.37-38.21-96.63-92.57-118.06-158.67.38-.44.75-.87,1.13-1.31,10.26,7.46,20.88,14.47,30.73,22.44,37.95,30.71,64.52,69.96,84.37,114.11,3.27,7.27,6.17,14.71,9.16,22.11,1.33,3.3-2.54,10.62-5.95,10.84-46.97,2.99-91.58-3.91-131.07-31.81-.4-.28-.72-.67-1.75-1.66Z"/>
  <path d="m808.75,437.2h-44.31c5.42-54.1,6.9-107.97.02-162.21h44.21c-3.34,53.92-3.07,107.84.08,162.21Z"/>
  <path d="m808.74,269.56c-12.38,0-24.01.33-35.61-.11-8.47-.33-8.99-1.31-8.14-8.99,3.72-33.28,5.25-66.66,3.74-100.11-.71-15.76-2.43-31.48-3.69-47.21-.14-1.8-.25-3.61-.39-5.74h44.03c-3.37,54.01-2.67,107.8.05,162.17Z"/>
  <path d="m765.86,442.65h42.26c-.55,26.95-1.54,53.82-1.54,80.69,0,26.9.98,53.8,1.53,81h-42.68c1.21-27.19,3.29-54.05,3.36-80.92.08-26.73-1.86-53.47-2.93-80.77Z"/>
  <path d="m889.22,437.3c-15.54-.91-30.74-1.8-46.11-2.69,9.58-51.31,10.27-102.27.47-153.12,15.51-2.14,31.22-4.3,47.15-6.5-7.76,53.77-3.18,107.66-1.51,162.31Z"/>
  <path d="m891.45,442.15c-11.24,54.39-8.61,107.97-.11,162.04h-47.58c2.08-13.57,4.57-27.11,6.17-40.75,2.8-23.88,2.16-47.86.2-71.77-1.2-14.58-2.94-29.12-4.65-43.65-.35-2.98.34-4.39,3.32-4.7,2.97-.31,5.92-1.08,8.89-1.11,11.11-.14,22.22-.05,33.75-.05Z"/>
  <path d="m735.35,235c21.33,48.18,21.2,96.69,6.6,146.85-6.59-8.71-10.38-17.73-12.62-27.22-9.32-39.6-7.87-78.84,4.8-117.58.15-.46.5-.85,1.22-2.05Z"/>
  <path d="m865.56,248.36c24.81-28.81,94.07-44.19,132.59-35.38-38.58,33.8-83.33,41.41-132.59,35.38Z"/>
</svg>